<svg xmlns="http://www.w3.org/2000/svg" xmlns:xlink="http://www.w3.org/1999/xlink" width="220" height="220" viewBox="0 0 220 220">
  <defs>
    <filter id="Rectangle_1529" x="0" y="0" width="220" height="220" filterUnits="userSpaceOnUse">
      <feOffset dy="3" input="SourceAlpha"/>
      <feGaussianBlur stdDeviation="30" result="blur"/>
      <feFlood flood-opacity="0.051"/>
      <feComposite operator="in" in2="blur"/>
      <feComposite in="SourceGraphic"/>
    </filter>
  </defs>
  <g id="Group_1194" data-name="Group 1194" transform="translate(90 87)">
    <g transform="matrix(1, 0, 0, 1, -90, -87)" filter="url(#Rectangle_1529)">
      <g id="Rectangle_1529-2" data-name="Rectangle 1529" transform="translate(90 87)" fill="#b22" stroke="rgba(0,0,0,0)" stroke-width="1">
        <rect width="40" height="40" rx="7" stroke="none"/>
        <rect x="0.5" y="0.5" width="39" height="39" rx="6.5" fill="none"/>
      </g>
    </g>
    <path id="Icon_material-comment" data-name="Icon material-comment" d="M22.99,5A2,2,0,0,0,21,3H5A2.006,2.006,0,0,0,3,5V17a2.006,2.006,0,0,0,2,2H19l4,4ZM19,15H7V13H19Zm0-3H7V10H19Zm0-3H7V7H19Z" transform="translate(7.143 7)" fill="#fff"/>
  </g>
</svg>
